<svg width="430" height="209" viewBox="0 0 430 209" fill="none" xmlns="http://www.w3.org/2000/svg">
<circle cx="167.5" cy="47.5" r="17.5" fill="#51ACE5"/>
<ellipse cx="8.5" cy="40" rx="39.5" ry="40" fill="#51ACE5"/>
<ellipse cx="63.5" cy="62" rx="39.5" ry="40" fill="#51ACE5"/>
<ellipse cx="296.5" cy="53" rx="39.5" ry="40" fill="#51ACE5"/>
<circle cx="122" cy="47" r="40" fill="#51ACE5"/>
<ellipse cx="363.5" cy="49" rx="39.5" ry="40" fill="#51ACE5"/>
<circle cx="205" cy="51" r="32" fill="#51ACE5"/>
<ellipse cx="243" cy="49.5" rx="30" ry="30.5" fill="#51ACE5"/>
<circle cx="409.5" cy="55.5" r="30.5" fill="#51ACE5"/>
<circle cx="473" cy="51" r="51" fill="#51ACE5"/>
<rect x="-11" y="58" width="492" height="147" fill="#51ACE5"/>
<ellipse cx="17.5" cy="195" rx="39.5" ry="40" fill="#F7F8EA"/>
<ellipse cx="66.5" cy="185" rx="39.5" ry="40" fill="#F7F8EA"/>
<circle cx="432" cy="185" r="40" fill="#F7F8EA"/>
<circle cx="117.5" cy="202.5" r="32.5" fill="#F7F8EA"/>
<ellipse cx="383.5" cy="205" rx="32.5" ry="33" fill="#F7F8EA"/>
<ellipse cx="177.5" cy="202" rx="39.5" ry="40" fill="#F7F8EA"/>
<ellipse cx="329.5" cy="202" rx="39.5" ry="40" fill="#F7F8EA"/>
<ellipse cx="240.5" cy="192" rx="39.5" ry="40" fill="#F7F8EA"/>
<ellipse cx="275.5" cy="205" rx="26.5" ry="27" fill="#F7F8EA"/>
</svg>
